# AST/ASF file generated using VICON BodyLanguage
# -----------------------------------------------
:version 1.10
:name VICON
:units
  mass 1.0
  length 0.45
  angle deg
:documentation
   .ast/.asf automatically generated from VICON data using
   VICON BodyBuilder and BodyLanguage model FoxedUp or BRILLIANT.MOD
:root
   order TX TY TZ RX RY RZ
   axis XYZ
   position 0 0 0  
   orientation 0 0 0 
:bonedata
  begin
     id 1 
     name lhipjoint
     direction 0.650112 -0.723553 0.232005 
     length 2.45805 
     axis 0 0 0  XYZ
  end
  begin
     id 2 
     name lfemur
     direction 0.34202 -0.939693 0  
     length 7.00073  
     axis 0 0 20  XYZ
    dof rx ry rz
    limits (-160.0 20.0)
           (-70.0 70.0)
           (-60.0 70.0)
  end
  begin
     id 3 
     name ltibia
     direction 0.34202 -0.939693 0   
     length 7.8748   
     axis 0 0 20   XYZ
    dof rx
    limits (-10.0 170.0)
  end
  begin
     id 4 
     name lfoot
     direction 0.0542825 -0.14914 0.987325   
     length 1.75978   
     axis -90 7.62852e-016 20   XYZ
    dof rx rz
    limits (-45.0 90.0)
           (-70.0 20.0)
  end
  begin
     id 5 
     name ltoes
     direction 1.53509e-011 -4.21906e-011 1   
     length 0.893912   
     axis -90 7.62852e-016 20   XYZ
    dof rx
    limits (-90.0 20.0)
  end
  begin
     id 6 
     name rhipjoint
     direction -0.637897 -0.733345 0.235145   
     length 2.42522  
     axis 0 0 0  XYZ 
  end
  begin
     id 7 
     name rfemur
     direction -0.34202 -0.939693 0   
     length 7.02549   
     axis 0 0 -20   XYZ
    dof rx ry rz
    limits (-160.0 20.0)
           (-70.0 70.0)
           (-70.0 60.0)
  end
  begin
     id 8 
     name rtibia
     direction -0.34202 -0.939693 0   
     length 7.71512   
     axis 0 0 -20   XYZ
    dof rx
    limits (-10.0 170.0)
 end
 begin
     id 9 
     name rfoot
     direction -0.0822618 -0.226012 0.970645   
     length 1.90014  
     axis -90 -7.62852e-016 -20   XYZ
    dof rx rz
    limits (-45.0 90.0)
           (-20.0 70.0)
  end
  begin
     id 10 
     name rtoes
     direction -1.53542e-011 -4.21872e-011 1   
     length 0.957341   
     axis -90 -7.62852e-016 -20   XYZ
    dof rx
    limits (-90.0 20.0)
  end
  begin
     id 11 
     name lowerback
     direction -0.0022947 0.999774 -0.0211557   
     length 1.89909   
     axis 0 0 0   XYZ
    dof rx ry rz
    limits (-20.0 45.0)
           (-30.0 30.0)
           (-30.0 30.0)
  end
  begin
     id 12 
     name upperback
     direction 0.0107737 0.998635 0.0511027   
     length 1.8853   
     axis 0 0 0   XYZ
    dof rx ry rz
    limits (-20.0 45.0)
           (-30.0 30.0)
           (-30.0 30.0)
  end
  begin
     id 13 
     name thorax
     direction 0.011824 0.998136 0.0598754   
     length 1.88911   
     axis 0 0 0   XYZ
    dof rx ry rz
    limits (-20.0 45.0)
           (-30.0 30.0)
           (-30.0 30.0)
  end
  begin
     id 14 
     name lowerneck
     direction -0.0685355 0.990319 0.120714   
     length 1.91222   
     axis 0 0 0   XYZ
    dof rx ry rz
    limits (-20.0 45.0)
           (-30.0 30.0)
           (-30.0 30.0)
  end
  begin
     id 15 
     name upperneck
     direction 0.0886204 0.955665 -0.280805   
     length 1.92526   
     axis 0 0 0   XYZ
    dof rx ry rz
    limits (-20.0 45.0)
           (-30.0 30.0)
           (-30.0 30.0)
  end
  begin
     id 16
     name head
     direction 0.0233423 0.993502 -0.111393  
     length 1.96056  
     axis 0 0 0   XYZ
    dof rx ry rz
    limits (-20.0 45.0)
           (-30.0 30.0)
           (-30.0 30.0)
  end
  begin
     id 17 
     name lclavicle
     direction 0.941873 0.32922 0.0670041  
     length 3.31705  
     axis 0 0 0   XYZ
    dof ry rz
    limits (-20.0 10.0)
           (0.0 20.0)
  end
  begin
     id 18 
     name lhumerus
     direction 1 -4.4898e-011 3.38707e-028   
     length 5.29277   
     axis 180 -30 -90   XYZ
    dof rx ry rz
    limits (-60.0 90.0)
           (-90.0 90.0)
           (-90.0 90.0)
  end
  begin
     id 19
     name lradius
     direction 1 -4.48952e-011 1.63213e-028   
     length 2.85226   
     axis 180 -30 -90   XYZ
    dof rx
    limits (-10.0 170.0)
  end
  begin
     id 20
     name lwrist
     direction 1 -4.49001e-011 1.27856e-027   
     length 1.42613   
     axis -1.61767e-015 90 90   XYZ
    dof ry
    limits (-180.0 0.0)
 end
  begin
     id 21 
     name lhand
     direction 1 -4.48976e-011 2.55931e-027   
     length 0.602097   
     axis -1.63363e-015 90 90   XYZ
    dof rx rz
    limits (-90.0 90.0)
           (-45.0 45.0)
  end
  begin
     id 22 
     name lfingers
     direction 1 -4.48986e-011 5.11684e-027   
     length 0.485426   
     axis -3.26723e-015 90 90   XYZ
    dof rx
    limits (0.0 90.0)
  end
  begin
     id 23
     name lthumb
     direction 0.707107 -6.34915e-011 0.707107   
     length 0.696978   
     axis -90 45 -2.25915e-014   XYZ
    dof rx rz
    limits (-45.0 45.0)
           (-45.0 45.0)
  end
  begin
     id 24 
     name rclavicle
     direction -0.939974 0.327078 0.0973096   
     length 3.10337  
     axis 0 0 0   XYZ 
    dof ry rz
    limits (-10.0 20.0)
           (-20.0 0.0)
  end
  begin
     id 25 
     name rhumerus
     direction -1 -4.48975e-011 1.83745e-027  
     length 5.13304   
     axis 180 30 90   XYZ
    dof rx ry rz
    limits (-90.0 60.0)
           (-90.0 90.0)
           (-90.0 90.0)
  end
  begin
     id 26 
     name rradius
     direction -1 -4.48977e-011 7.1775e-029   
     length 2.74305   
     axis 180 30 90   XYZ
    dof rx
    limits (-10.0 170.0)
  end
  begin
     id 27 
     name rwrist
     direction -1 -4.48977e-011 1.27963e-027   
     length 1.37152   
     axis -1.61767e-015 -90 -90   XYZ
    dof ry
    limits (-180.0 0.0)
  end
  begin
     id 28
     name rhand
     direction -1 -4.4888e-011 2.56782e-027   
     length 0.767976   
     axis -1.63363e-015 -90 -90   XYZ
    dof rx rz
    limits (-90.0 90.0)
           (-45.0 45.0)
  end
  begin
     id 29
     name rfingers
     direction -1 -4.48947e-011 5.12384e-027   
     length 0.619162   
     axis -3.26723e-015 -90 -90   XYZ
    dof rx
    limits (0.0 90.0)
  end
  begin
     id 30
     name rthumb
     direction -0.707107 -6.34857e-011 0.707107   
     length 0.888997   
     axis -90 -45 2.25915e-014   XYZ
    dof rx rz
    limits (-45.0 45.0)
           (-45.0 45.0)
  end
:hierarchy
  begin
    root lhipjoint rhipjoint lowerback
    lhipjoint lfemur
    lfemur ltibia
    ltibia lfoot
    lfoot ltoes
    rhipjoint rfemur
    rfemur rtibia
    rtibia rfoot
    rfoot rtoes
    lowerback upperback
    upperback thorax
    thorax lowerneck lclavicle rclavicle
    lowerneck upperneck
    upperneck head
    lclavicle lhumerus
    lhumerus lradius
    lradius lwrist
    lwrist lhand lthumb
    lhand lfingers
    rclavicle rhumerus
    rhumerus rradius
    rradius rwrist
    rwrist rhand rthumb
    rhand rfingers
  end

#!OML:ASF F:\VICON\USERDATA\INSTALL\rory3\rory3.ASF
:FULLY-SPECIFIED
:DEGREES
1358
root -0.156092 16.5591 -1.86933 36.2618 -1.19008 -0.67613
lowerback 18.3685 -0.857053 -2.43583
upperback 0.501535 -1.79123 -1.53447
thorax -9.75862 -0.773724 0.18564
lowerneck -5.68589 -9.43299 -19.0417
upperneck -12.4676 -10.4715 29.4825
head 0.469749 -5.34633 12.3646
rclavicle 3.97569e-015 3.18055e-015
rhumerus 31.448 16.8954 -82.0329
rradius 103.075
rwrist 34.3635
rhand 26.8026 4.48613
rfingers 7.12502
rthumb 50.8108 -16.3003
lclavicle 3.97569e-015 3.18055e-015
lhumerus 27.151 -7.89195 86.4024
lradius 103.099
lwrist -15.1347
lhand 23.0587 36.6541
lfingers 7.12502
lthumb 47.3731 59.1542
rfemur -62.6605 5.81397 14.4967
rtibia 41.9478
rfoot -16.1438 -6.81505
rtoes -19.7149
lfemur -63.0692 -3.09644 -11.3399
ltibia 43.4158
lfoot -15.4183 4.28937
ltoes -23.4573
1359
root -0.163867 16.6447 -1.83928 36.3417 -1.10803 -0.867998
lowerback 18.2696 -0.84926 -2.38629
upperback 0.522805 -1.75742 -1.44564
thorax -9.67847 -0.75893 0.24354
lowerneck -6.01477 -9.45913 -18.8872
upperneck -12.1892 -10.5159 29.4089
head 0.596553 -5.33986 12.2762
rclavicle 7.15625e-015 1.43125e-014
rhumerus 30.1635 17.5156 -82.1664
rradius 102.847
rwrist 33.7774
rhand 26.5803 4.48479
rfingers 7.12502
rthumb 50.6079 -16.4128
lclavicle 7.15625e-015 1.43125e-014
lhumerus 25.5064 -8.22129 86.8124
lradius 103.121
lwrist -15.044
lhand 23.5255 37.0181
lfingers 7.12502
lthumb 47.8041 59.3218
rfemur -61.6597 6.30684 14.3818
rtibia 40.2444
rfoot -15.4465 -7.05314
rtoes -19.0437
lfemur -62.1673 -3.14572 -11.0245
ltibia 41.9351
lfoot -14.8997 4.39339
ltoes -22.6879
1360
root -0.16951 16.7222 -1.81011 36.5023 -0.882564 -1.03542
lowerback 18.1044 -0.873878 -2.25375
upperback 0.526332 -1.74171 -1.29797
thorax -9.58092 -0.755156 0.321838
lowerneck -6.34942 -9.51633 -18.7527
upperneck -11.9308 -10.6003 29.3421
head 0.730548 -5.35296 12.1897
rclavicle 1.59028e-014 1.74931e-014
rhumerus 28.949 18.1084 -82.2033
rradius 102.584
rwrist 33.0179
rhand 26.8899 4.64825
rfingers 7.12502
rthumb 50.8904 -16.0941
lclavicle 1.59028e-014 1.74931e-014
lhumerus 24.0298 -8.81316 87.0725
lradius 103.102
lwrist -14.927
lhand 23.5599 37.5688
lfingers 7.12502
lthumb 47.8358 59.8578
rfemur -60.765 6.67292 14.3068
rtibia 38.5922
rfoot -14.8254 -7.32034
rtoes -19.0185
lfemur -61.4008 -3.27242 -10.6538
ltibia 40.4724
lfoot -14.4083 4.55887
ltoes -23.026
1361
root -0.170065 16.7831 -1.78442 36.7675 -0.610309 -1.02978
lowerback 17.8768 -0.939708 -2.07241
upperback 0.495656 -1.77681 -1.21794
thorax -9.48899 -0.779245 0.310802
lowerneck -6.64956 -9.58027 -18.5571
upperneck -11.6958 -10.6982 29.3109
head 0.855131 -5.37917 12.106
rclavicle 3.97569e-015 -5.56597e-015
rhumerus 27.8127 18.5769 -82.2557
rradius 102.292
rwrist 32.2019
rhand 27.4524 4.83574
rfingers 7.12502
rthumb 51.4026 -15.6181
lclavicle 3.97569e-015 -5.56597e-015
lhumerus 22.6685 -9.64295 87.1322
lradius 102.874
lwrist -14.8526
lhand 22.8759 37.6427
lfingers 7.12502
lthumb 47.2041 60.2184
rfemur -60.0909 6.86886 14.0828
rtibia 37.0862
rfoot -14.2138 -7.64687
rtoes -18.9286
lfemur -60.8492 -3.59625 -10.3538
ltibia 39.0638
lfoot -13.8736 4.9093
ltoes -24.1758
1362
root -0.167823 16.8395 -1.75926 36.9571 -0.413752 -0.924755
lowerback 17.6849 -1.01111 -1.81177
upperback 0.521859 -1.81794 -1.28256
thorax -9.36204 -0.81392 0.099384
lowerneck -7.09413 -9.66151 -18.1692
upperneck -11.3879 -10.8253 29.2511
head 1.01622 -5.41311 11.9631
rclavicle 1.27222e-014 1.82882e-014
rhumerus 26.79 18.8719 -82.4632
rradius 101.993
rwrist 31.482
rhand 27.6419 4.80087
rfingers 7.12502
rthumb 51.575 -15.5539
lclavicle 1.27222e-014 1.82882e-014
lhumerus 21.584 -10.6492 86.8844
lradius 102.517
lwrist -14.5247
lhand 21.7434 37.6844
lfingers 7.12502
lthumb 46.1555 60.7139
rfemur -59.4279 7.04728 13.7305
rtibia 35.7793
rfoot -13.5979 -7.99003
rtoes -19.0633
lfemur -60.3024 -4.05026 -10.0984
ltibia 37.7992
lfoot -13.4696 5.29691
ltoes -24.9963
1363
root -0.160499 16.8897 -1.73496 36.9997 -0.20134 -0.769328
lowerback 17.562 -1.11956 -1.37728
upperback 0.649985 -1.88275 -1.44768
thorax -9.17155 -0.870039 -0.312982
lowerneck -7.57248 -9.75075 -17.715
upperneck -11.1796 -10.9496 29.2677
head 1.15827 -5.45064 11.8388
rclavicle 1.59028e-014 7.95139e-015
rhumerus 26.0398 18.9815 -82.7337
rradius 101.703
rwrist 30.8546
rhand 27.8085 4.70989
rfingers 7.12502
rthumb 51.7263 -15.5569
lclavicle 1.59028e-014 7.95139e-015
lhumerus 20.9024 -11.6565 86.3423
lradius 102.119
lwrist -14.091
lhand 21.2931 37.599
lfingers 7.12502
lthumb 45.7377 60.802
rfemur -58.7203 7.17984 13.3311
rtibia 34.7151
rfoot -13.2217 -8.31441
rtoes -19.0159
lfemur -59.7336 -4.57913 -9.91096
ltibia 36.7326
lfoot -13.1922 5.5798
ltoes -25.1331
1364
root -0.149772 16.9222 -1.71526 36.993 0.0912781 -0.767419
lowerback 17.6424 -1.164 -1.11745
upperback 0.694357 -1.87218 -1.2655
thorax -9.16944 -0.871619 -0.264745
lowerneck -7.78701 -9.79021 -17.5818
upperneck -11.0693 -11.0037 29.2285
head 1.22561 -5.46197 11.779
rclavicle 1.27222e-014 5.56597e-015
rhumerus 25.5006 19.1977 -82.5729
rradius 101.455
rwrist 30.3271
rhand 28.081 4.55934
rfingers 7.12502
rthumb 51.9737 -15.5619
lclavicle 1.27222e-014 5.56597e-015
lhumerus 20.3454 -12.2006 86.1906
lradius 101.936
lwrist -14.5871
lhand 23.1403 37.2491
lfingers 7.12502
lthumb 47.4485 59.7151
rfemur -58.1489 7.23311 13.2186
rtibia 33.9224
rfoot -13.0214 -8.5654
rtoes -19.3544
lfemur -59.2763 -5.00735 -9.61169
ltibia 35.9067
lfoot -12.9008 5.7856
ltoes -25.4677
1365
root -0.144002 16.9416 -1.7014 37.0943 0.312669 -0.838383
lowerback 17.6524 -1.07261 -1.23874
upperback 0.643633 -1.7338 -0.810686
thorax -9.21157 -0.78906 0.262244
lowerneck -7.76472 -9.78488 -17.7059
upperneck -11.0029 -11.0005 29.0935
head 1.23299 -5.45132 11.752
rclavicle -1.27222e-014 -4.37326e-015
rhumerus 25.1493 19.3847 -82.0711
rradius 101.223
rwrist 30.0705
rhand 28.2804 4.5802
rfingers 7.12502
rthumb 52.1544 -15.4333
lclavicle -1.27222e-014 -4.37326e-015
lhumerus 19.9989 -12.5283 86.2688
lradius 101.913
lwrist -15.4533
lhand 26.0813 36.761
lfingers 7.12502
lthumb 50.152 57.9036
rfemur -57.8936 7.25047 13.2717
rtibia 33.4234
rfoot -12.8489 -8.75014
rtoes -20.3067
lfemur -59.0981 -5.21436 -9.33767
ltibia 35.3737
lfoot -12.6578 5.9046
ltoes -25.571
1366
root -0.139429 16.9477 -1.69532 37.2773 0.534494 -0.748063
lowerback 17.413 -1.03834 -1.29555
upperback 0.669998 -1.66747 -0.519165
thorax -9.03826 -0.750048 0.587803
lowerneck -7.86175 -9.78433 -17.6716
upperneck -10.9736 -10.9913 29.0107
head 1.24462 -5.43797 11.7114
rclavicle -1.19271e-015 -7.55382e-015
rhumerus 25.1774 19.3579 -81.6865
rradius 100.991
rwrist 29.98
rhand 28.3595 4.59012
rfingers 7.12502
rthumb 52.2262 -15.3802
lclavicle -1.19271e-015 -7.55382e-015
lhumerus 20.1906 -13.0055 85.8988
lradius 101.804
lwrist -15.5685
lhand 27.8308 36.5259
lfingers 7.12502
lthumb 51.7466 56.7809
rfemur -57.9104 7.12614 13.1965
rtibia 33.2292
rfoot -12.7936 -8.8887
rtoes -20.7134
lfemur -59.2127 -5.45999 -9.21641
ltibia 35.1448
lfoot -12.5828 5.83486
ltoes -23.9906
1367
root -0.121181 16.9396 -1.69749 37.3495 0.852068 -0.695951
lowerback 17.3451 -1.06142 -0.964232
upperback 0.719047 -1.61047 -0.303513
thorax -8.94994 -0.732816 0.616539
lowerneck -7.8522 -9.78296 -17.4843
upperneck -11.0602 -10.9844 28.8674
head 1.19055 -5.44251 11.6276
rclavicle 3.57812e-015 8.34896e-015
rhumerus 25.4964 19.0657 -81.3864
rradius 100.726
rwrist 29.9303
rhand 28.2586 4.55611
rfingers 7.12502
rthumb 52.1347 -15.4692
lclavicle 3.57812e-015 8.34896e-015
lhumerus 20.7151 -13.5994 85.2149
lradius 101.729
lwrist -15.1367
lhand 28.5281 36.2986
lfingers 7.12502
lthumb 52.3789 56.1765
rfemur -58.0002 6.68141 13.4084
rtibia 33.3451
rfoot -12.8756 -8.83914
rtoes -21.0391
lfemur -59.4435 -5.80115 -9.04653
ltibia 35.2075
lfoot -12.5532 5.80093
ltoes -22.81
1368
root -0.111839 16.9267 -1.70273 37.3457 1.05323 -0.753827
lowerback 17.3311 -0.976661 -0.904485
upperback 0.738685 -1.45288 0.0616504
thorax -8.91434 -0.652216 0.937642
lowerneck -7.67081 -9.74232 -17.4208
upperneck -11.1249 -10.9406 28.6381
head 1.10352 -5.43305 11.5481
rclavicle 1.94809e-014 2.38542e-015
rhumerus 25.8821 18.7334 -80.9792
rradius 100.568
rwrist 29.9192
rhand 28.0528 4.46134
rfingers 7.12502
rthumb 51.9481 -15.6751
lclavicle 1.94809e-014 2.38542e-015
lhumerus 21.4364 -14.1763 84.2876
lradius 101.768
lwrist -14.4613
lhand 28.5477 36.2682
lfingers 7.12502
lthumb 52.3966 56.1352
rfemur -58.1968 6.34786 13.7367
rtibia 33.7589
rfoot -13.0746 -8.71977
rtoes -21.3643
lfemur -59.6915 -5.9366 -8.87534
ltibia 35.5376
lfoot -12.6563 5.86254
ltoes -23.9261
1369
root -0.107143 16.9011 -1.71688 37.3894 1.11061 -0.718389
lowerback 17.2786 -0.84222 -1.07011
upperback 0.726268 -1.27646 0.40405
thorax -8.89034 -0.553722 1.35738
lowerneck -7.47067 -9.70456 -17.4165
upperneck -11.1421 -10.9086 28.4171
head 1.03399 -5.42643 11.4808
rclavicle 1.90833e-014 -7.95139e-016
rhumerus 26.3769 18.3189 -80.6001
rradius 100.536
rwrist 29.8699
rhand 27.7392 4.31073
rfingers 7.12502
rthumb 51.6634 -15.9928
lclavicle 1.90833e-014 -7.95139e-016
lhumerus 22.4741 -14.7662 82.969
lradius 101.842
lwrist -13.641
lhand 28.0014 36.1823
lfingers 7.12502
lthumb 51.9014 56.3463
rfemur -58.6334 6.00862 13.937
rtibia 34.41
rfoot -13.2957 -8.50936
rtoes -21.8548
lfemur -60.1425 -5.94379 -8.90832
ltibia 36.1374
lfoot -12.8717 5.79158
ltoes -24.1268
